<mxfile host="Electron" modified="2023-08-10T13:16:46.508Z" agent="Mozilla/5.0 (Windows NT 10.0; Win64; x64) AppleWebKit/537.36 (KHTML, like Gecko) draw.io/21.2.1 Chrome/112.0.5615.87 Electron/24.1.2 Safari/537.36" etag="gmQcQ5U9v80SXO8WgKu4" version="21.2.1" type="device">
  <diagram name="Application Header" id="2I_s0Zhyki-mP-fCk9XN">
    <mxGraphModel dx="1687" dy="1134" grid="1" gridSize="10" guides="1" tooltips="1" connect="1" arrows="1" fold="1" page="1" pageScale="1" pageWidth="827" pageHeight="1169" math="0" shadow="0">
      <root>
        <mxCell id="0" />
        <mxCell id="1" parent="0" />
        <mxCell id="9ab8QRaC9Be17Akn9t2G-50" value="" style="rounded=0;whiteSpace=wrap;html=1;" vertex="1" parent="1">
          <mxGeometry x="190" y="710" width="300" height="220" as="geometry" />
        </mxCell>
        <mxCell id="9ab8QRaC9Be17Akn9t2G-27" value="APPLICATION HEADER&lt;br&gt;(256 bytes)" style="rounded=0;whiteSpace=wrap;html=1;strokeWidth=1;horizontal=0;fontStyle=3;fillColor=#66FF66;fontSize=14;fontFamily=Lucida Console;" vertex="1" parent="1">
          <mxGeometry x="200" y="720" width="40" height="200" as="geometry" />
        </mxCell>
        <mxCell id="9ab8QRaC9Be17Akn9t2G-28" value="HEADER VERSION (u8)" style="rounded=0;whiteSpace=wrap;html=1;strokeWidth=1;fontFamily=Lucida Console;fillColor=#FFCC99;fontStyle=1;align=right;" vertex="1" parent="1">
          <mxGeometry x="240" y="880" width="210" height="20" as="geometry" />
        </mxCell>
        <mxCell id="9ab8QRaC9Be17Akn9t2G-29" value="SW (APP) VERSION (u32)" style="rounded=0;whiteSpace=wrap;html=1;strokeWidth=1;fontFamily=Lucida Console;fillColor=#FFCC99;fontStyle=1;align=right;" vertex="1" parent="1">
          <mxGeometry x="240" y="720" width="210" height="20" as="geometry" />
        </mxCell>
        <mxCell id="9ab8QRaC9Be17Akn9t2G-30" value="HW VERSION (u32)" style="rounded=0;whiteSpace=wrap;html=1;strokeWidth=1;fontFamily=Lucida Console;fillColor=#FFCC99;fontStyle=1;align=right;" vertex="1" parent="1">
          <mxGeometry x="240" y="740" width="210" height="20" as="geometry" />
        </mxCell>
        <mxCell id="9ab8QRaC9Be17Akn9t2G-32" value="APP SIZE (u32)" style="rounded=0;whiteSpace=wrap;html=1;strokeWidth=1;fontFamily=Lucida Console;fillColor=#FFCC99;fontStyle=1;align=right;" vertex="1" parent="1">
          <mxGeometry x="240" y="760" width="210" height="20" as="geometry" />
        </mxCell>
        <mxCell id="9ab8QRaC9Be17Akn9t2G-33" value="0x00" style="text;html=1;strokeColor=none;fillColor=none;align=left;verticalAlign=middle;whiteSpace=wrap;rounded=0;strokeWidth=3;fontFamily=Lucida Console;fontStyle=2" vertex="1" parent="1">
          <mxGeometry x="452" y="720" width="38" height="20" as="geometry" />
        </mxCell>
        <mxCell id="9ab8QRaC9Be17Akn9t2G-34" value="0x04" style="text;html=1;strokeColor=none;fillColor=none;align=left;verticalAlign=middle;whiteSpace=wrap;rounded=0;strokeWidth=3;fontFamily=Lucida Console;fontStyle=2" vertex="1" parent="1">
          <mxGeometry x="452" y="740" width="38" height="20" as="geometry" />
        </mxCell>
        <mxCell id="9ab8QRaC9Be17Akn9t2G-35" value="0x08" style="text;html=1;strokeColor=none;fillColor=none;align=left;verticalAlign=middle;whiteSpace=wrap;rounded=0;strokeWidth=3;fontFamily=Lucida Console;fontStyle=2" vertex="1" parent="1">
          <mxGeometry x="452" y="760" width="38" height="20" as="geometry" />
        </mxCell>
        <mxCell id="9ab8QRaC9Be17Akn9t2G-36" value="0x0C" style="text;html=1;strokeColor=none;fillColor=none;align=left;verticalAlign=middle;whiteSpace=wrap;rounded=0;strokeWidth=3;fontFamily=Lucida Console;fontStyle=2" vertex="1" parent="1">
          <mxGeometry x="452" y="780" width="38" height="20" as="geometry" />
        </mxCell>
        <mxCell id="9ab8QRaC9Be17Akn9t2G-41" value="CRC (u8)" style="rounded=0;whiteSpace=wrap;html=1;strokeWidth=1;fontFamily=Lucida Console;fillColor=#FFCC99;fontStyle=1;align=right;" vertex="1" parent="1">
          <mxGeometry x="240" y="900" width="210" height="20" as="geometry" />
        </mxCell>
        <mxCell id="9ab8QRaC9Be17Akn9t2G-42" value="0xFF" style="text;html=1;strokeColor=none;fillColor=none;align=left;verticalAlign=middle;whiteSpace=wrap;rounded=0;strokeWidth=3;fontFamily=Lucida Console;fontStyle=2" vertex="1" parent="1">
          <mxGeometry x="450" y="900" width="40" height="20" as="geometry" />
        </mxCell>
        <mxCell id="9ab8QRaC9Be17Akn9t2G-44" value="Reserved&lt;br&gt;(238 bytes)" style="rounded=0;whiteSpace=wrap;html=1;strokeWidth=1;fontFamily=Lucida Console;fillColor=#CCCCCC;fontStyle=1" vertex="1" parent="1">
          <mxGeometry x="240" y="800" width="210" height="80" as="geometry" />
        </mxCell>
        <mxCell id="9ab8QRaC9Be17Akn9t2G-46" value="APP CRC (u32)" style="rounded=0;whiteSpace=wrap;html=1;strokeWidth=1;fontFamily=Lucida Console;fillColor=#FFCC99;fontStyle=1;align=right;" vertex="1" parent="1">
          <mxGeometry x="240" y="780" width="210" height="20" as="geometry" />
        </mxCell>
        <mxCell id="9ab8QRaC9Be17Akn9t2G-47" value="0xFE" style="text;html=1;strokeColor=none;fillColor=none;align=left;verticalAlign=middle;whiteSpace=wrap;rounded=0;strokeWidth=3;fontFamily=Lucida Console;fontStyle=2" vertex="1" parent="1">
          <mxGeometry x="452" y="880" width="38" height="20" as="geometry" />
        </mxCell>
        <mxCell id="9ab8QRaC9Be17Akn9t2G-48" value="0x10" style="text;html=1;strokeColor=none;fillColor=none;align=left;verticalAlign=middle;whiteSpace=wrap;rounded=0;strokeWidth=3;fontFamily=Lucida Console;fontStyle=2" vertex="1" parent="1">
          <mxGeometry x="452" y="800" width="38" height="20" as="geometry" />
        </mxCell>
        <mxCell id="9ab8QRaC9Be17Akn9t2G-49" value="0xFD" style="text;html=1;strokeColor=none;fillColor=none;align=left;verticalAlign=middle;whiteSpace=wrap;rounded=0;strokeWidth=3;fontFamily=Lucida Console;fontStyle=2" vertex="1" parent="1">
          <mxGeometry x="452" y="860" width="38" height="20" as="geometry" />
        </mxCell>
      </root>
    </mxGraphModel>
  </diagram>
</mxfile>
